<svg xmlns="http://www.w3.org/2000/svg" width="74" height="123"><g fill="#ff9e2b" paint-order="stroke fill markers"><circle r="4.5" cy="4.5" cx="4.5"/><circle cx="26.167" cy="4.5" r="4.5"/><circle r="4.5" cy="4.5" cx="47.833"/><circle cx="69.5" cy="4.5" r="4.5"/><circle cx="4.5" cy="50.1" r="4.5"/><circle r="4.5" cy="50.1" cx="26.167"/><circle cx="47.833" cy="50.1" r="4.5"/><circle r="4.5" cy="50.1" cx="69.5"/><circle cx="4.5" cy="27.3" r="4.5"/><circle r="4.5" cy="27.3" cx="26.167"/><circle cx="47.833" cy="27.3" r="4.5"/><circle r="4.5" cy="27.3" cx="69.5"/><circle cx="4.5" cy="72.9" r="4.5"/><circle r="4.5" cy="72.9" cx="26.167"/><circle cx="47.833" cy="72.9" r="4.5"/><circle r="4.5" cy="72.9" cx="69.5"/><circle r="4.5" cy="118.5" cx="4.5"/><circle cx="26.167" cy="118.5" r="4.5"/><circle r="4.5" cy="118.5" cx="47.833"/><circle cx="69.5" cy="118.5" r="4.5"/><circle r="4.5" cy="95.7" cx="4.5"/><circle cx="26.167" cy="95.7" r="4.5"/><circle r="4.5" cy="95.7" cx="47.833"/><circle cx="69.5" cy="95.7" r="4.5"/></g></svg>