<svg xmlns="http://www.w3.org/2000/svg" width="84" height="68"><path d="M58.67 67.1s23.16-.973 24.745-20.854C85 26.364 73.763.864 40.051 0 6.339-.864-4.9 37.89 1.729 52.585 8.356 67.28 25.644 68.145 33.424 68c7.78-.144 17.41-.102 17.41-.102l-4.075-27.913z" fill="#f54ea2"/><path d="M50.02 1.086L48.84 28.38l8.926-25.088a47.522 47.522 0 0 0-7.746-2.207zm-20.75.105a34.596 34.596 0 0 0-8.624 3.54l13.93 26.1L29.27 1.19zM75.377 16.56L64.543 30.543l14.71-7.488a40.064 40.064 0 0 0-3.876-6.496zM6.15 19.787A49.172 49.172 0 0 0 1.957 29.6l18.5 1.52L6.15 19.786zm77.211 18.535L53.45 42.5l30.065 2.082c.088-2.048.04-4.145-.153-6.26zm-46.336 2.305L7.665 60.604c2.997 2.607 6.494 4.304 10.017 5.412l19.343-25.389z" fill="#df4090"/></svg>