<svg xmlns="http://www.w3.org/2000/svg" width="72" height="93"><path d="M13.457 92.605c4.222 1.255 18.903 1.084 28.69-25.282C53.03 38.006 58.15 33.413 67.072 24.062c12.273-12.864.45-32.164-22.503-20.418C21.617 15.389-.26 53.084.002 70.11c.176 11.363 3.565 19.555 13.455 22.495z" fill="#fe744f"/><path d="M55.658 5.276a1.506 1.516 0 0 0-1.06.398S37.618 20.932 25.012 43.08c-9.265 16.275-11.33 38.413-11.768 49.454.073.022.14.05.213.073.682.202 1.657.35 2.819.375.45-10.72 2.47-32.798 11.35-48.396C39.95 22.935 56.605 7.934 56.605 7.934a1.506 1.516 0 0 0-.947-2.658z" style="line-height:normal;font-variant-ligatures:normal;font-variant-position:normal;font-variant-caps:normal;font-variant-numeric:normal;font-variant-alternates:normal;font-feature-settings:normal;text-indent:0;text-align:start;text-decoration-line:none;text-decoration-style:solid;text-decoration-color:#000;text-transform:none;text-orientation:mixed;white-space:normal;shape-padding:0;isolation:auto;mix-blend-mode:normal;solid-color:#000;solid-opacity:1" color="#000" font-weight="400" font-family="sans-serif" overflow="visible" fill="#da6048"/></svg>