<svg xmlns="http://www.w3.org/2000/svg" width="573" height="359"><path d="M3.45 358.184s3.147 2.858 5.502-2.124c2.354-4.982 13.25-30.16 27.523-47.106 14.273-16.948 29.117-36.37 56.141-35.228 27.024 1.142 35.208-9.902 43.962-18.09 8.754-8.188 16.367-13.14 39.014-10.283 22.647 2.856 22.647 22.28 46.055 27.42 23.408 5.142 36.349 4.57 64.896-15.233 28.546-19.804 49.48-2.475 73.46 1.143 23.978 3.618 40.337-3.036 61.636-12.781 21.3-9.745 41.216-31.289 50.367-62.796 9.15-31.508 2.691-38.51 57.865-55.206 55.173-16.696 43.936-78.022 37.981-94.89-5.954-16.867-53.146-31.855-53.146-31.855s-33.28-.093-54.812 37.07c-21.53 37.162-46.022 46.857-64.862 39.317-18.84-7.54-37.141-18.043-74.283 3.231-37.14 21.275-79.934 85.367-93.93 96.408C212.826 188.222 4.273 260.197 3.45 358.184z" fill="#dc3c8c"/><path d="M524.79 0c-4.82-.018-9.65.77-14.29 2.377-29.688 10.282-26.415 20.947-38.976 50.652-12.56 29.706-38.852 35.29-75.232 23.769-54.158-17.153-76.306 34.935-91.691 48.678-30.779 26.914-114.177 43.073-172.788 67.323C47.203 227.807 10.973 297.528 3.36 325.14c-7.612 27.61.09 33.045.09 33.045 2.95 2.666 4.858-7.91 11.71-26 6.85-18.09 23.979-44.938 35.207-50.08 11.228-5.14 18.08-16.186 30.641-20.566 12.56-4.38 14.463 1.715 37.68-21.136 23.219-22.85 43.392-29.705 78.41 3.048 35.016 32.752 60.897 36.18 73.077 15.614s41.488-43.036 75.744-20.567c34.256 22.47 74.983 21.709 99.724-15.614 24.74-37.322 5.328-71.597 39.584-89.497 34.256-17.9 78.026-10.663 85.258-64.361C576.587 23.717 550.823.098 524.79 0zM511.87 63.311s-.944 1.572-3.468 4.485c-12.179 15.049-58.938 66.287-161.34 109.006-121.418 50.652-172.393 44.473-172.393 44.473s81.806-10.579 200.56-68.467c93.024-45.345 124.05-74.478 133.173-85.012 2.262-2.794 3.468-4.485 3.468-4.485z" fill="#f54ea2"/></svg>