<svg xmlns="http://www.w3.org/2000/svg" width="346" height="285"><path d="M345.248 45.84c3.942-5.292-6.974-24.191-47.91-37.497-40.936-13.305-78.021-7.482-93.245-4.275-15.223 3.207-25.086.428-46.742-3.421-21.656-3.85-36.236 11.119-32.805 29.294 3.43 18.175 1.072 18.816-33.235 26.942-34.306 8.125-74.402 20.1-61.965 63.933 12.436 43.834-2.359 37.42-13.937 46.828-11.579 9.408-24.761 39.607-6.004 59.87 10.292 11.12 19.624 17.828 18.01 31.22-2.366 19.646 1.073 30.362 16.082 24.803 15.009-5.56 22.942-24.162 25.515-38.275 2.573-14.112 7.078-21.14 33.878-20.1 15.683.61 23.923-15.555 26.286-28.16 1.551-8.277-1.583-15.843-1.2-22.088 1.287-20.955 15.19-17.042 40.096-24.804 27.445-8.553 32.59-32.715 31.948-53.884-.644-21.168 3.469-63.086 43.495-70.344 20.713-3.756 51.01 3.647 70.416 11.075 18.094 6.925 25.83 13.99 31.317 8.883z" fill="#ff9e2b"/><path d="M40.851 279.001l4.549 1.512s4.407-64.31 29.217-125.317c26.76-65.8 71.439-104.035 115.53-125.988C130.032 54.865 97.38 91.177 68.155 152.89c-31.5 66.516-27.304 126.111-27.304 126.111z" fill="#d77d13"/></svg>