<svg xmlns="http://www.w3.org/2000/svg" width="161" height="120"><path d="M161 92.206s-1.655-25.103-4.327-35.653c-2.673-10.55-7.588-6.304-8.623-3.517-1.035 2.786-5.76 5.805-11.742-16.184-5.981-21.99-15.018-25.294-22.273-13.6-7.255 11.693-14.5 5.547-20.873-7.118C86.155 2.208 67.285-9.01 69.656 9.726c2.61 20.629-2.838 17.66-16.074 9.78-13.237-7.88-17.694-10.872-23.422-6.423-5.727 4.449 0 7.372 2.8 12.583 2.8 5.212-1.272 5.847-7.89 5.847-6.62 0-12.22-.89-14.383 4.576-2.164 5.466 10.763 7.043-4.327 12.075-11.652 3.885-5.028 12.393 1.909 13.537 6.936 1.144 6.81 5.275 4.773 8.707-2.037 3.431-4.837 9.469 12.536 9.66 17.374.19 17.5 4.194 10.119 8.643-7.382 4.448-1.146 13.155 13.237 12.456 14.382-.7 42.912-10.383 33.013 4.896-9.9 15.28 7.935 17.49 20.609 8.449 13.341-9.518 19.65-8.782 17.4-1.862s1.32 7.704 8.7 5.007c7.38-2.696 10.62-11.324 17.099-11.864 6.48-.539 9.858 2.982 11.658 1.364 2.118-2.444-24.923-21.497-63.36-36.75-38.437-15.252-71.02-16.904-79.802-16.904-8.782 0-9.546.222-9.546.222s25.073-3.909 60.71 2.7C101.054 63.036 161 92.207 161 92.207z" fill="#3ef8f4"/></svg>