<svg xmlns="http://www.w3.org/2000/svg" width="464" height="291"><path d="M461.207 290.339s-2.549 2.316-4.456-1.722c-1.907-4.038-10.73-24.447-22.287-38.184-11.559-13.737-23.579-29.481-45.462-28.555-21.884.926-28.51-8.026-35.6-14.663-7.088-6.638-13.253-10.65-31.591-8.335-18.34 2.315-18.34 18.059-37.295 22.226-18.955 4.168-29.434 3.705-52.55-12.348-23.117-16.053-40.069-2.007-59.486.926-19.418 2.933-32.664-2.46-49.912-10.36-17.248-7.899-33.376-25.362-40.786-50.901-7.41-25.54-2.179-31.215-46.857-44.75C-9.753 90.14-.653 40.43 4.168 26.759 8.99 13.085 47.205.936 47.205.936S74.155.861 91.59 30.984c17.435 30.124 37.268 37.982 52.524 31.87 15.256-6.112 30.076-14.625 60.152 2.62 30.076 17.244 64.728 69.197 76.061 78.146 11.333 8.95 180.214 67.292 180.88 146.719z" fill="#17e4e0"/><path d="M39.04 0a34.908 34.908 0 0 1 11.57 1.927c24.041 8.335 21.391 16.979 31.562 41.058 10.172 24.079 31.462 28.606 60.921 19.266 43.856-13.904 61.79 28.318 74.25 39.458 24.923 21.816 92.457 34.914 139.918 54.571 68.516 28.377 97.854 84.891 104.018 107.273 6.164 22.38-.073 26.786-.073 26.786-2.388 2.16-3.934-6.412-9.482-21.076-5.547-14.663-19.417-36.426-28.51-40.593-9.092-4.168-14.641-13.121-24.812-16.671-10.171-3.55-11.712 1.39-30.513-17.132-18.801-18.523-35.137-24.079-63.493 2.47-28.356 26.548-49.314 29.326-59.176 12.656-9.863-16.67-33.597-34.884-61.336-16.67-27.74 18.213-60.72 17.596-80.753-12.657-20.035-30.253-4.315-58.036-32.055-72.545-27.74-14.51-63.183-8.643-69.04-52.17C-2.904 19.223 17.958.08 39.04 0zm10.462 51.32s.765 1.273 2.808 3.635c9.863 12.198 47.727 53.73 130.65 88.358 98.32 41.057 139.599 36.05 139.599 36.05s-66.245-8.576-162.408-55.499C84.822 87.108 59.698 63.493 52.311 54.954c-1.832-2.264-2.809-3.635-2.809-3.635z" fill="#3ef8f4"/></svg>