<svg xmlns="http://www.w3.org/2000/svg" width="1600" height="517"><path d="M171.715 0C191.86 64.814 222.013 156.159 246 204.434c39.666 79.83 71.66 37.324 75.121 13.226 3.461-24.098 36.055-56.45 122.024 109.23 85.968 165.681 164.035 176.49 201.865 70.311C682.84 291.022 751.49 327.68 824.44 418.04c80.207 99.348 250.7 156.474 199.28 10.594-56.621-160.631-7.87-146.304 111.746-106.137s160.48 56.398 198.629 10.865c38.148-45.533-12.767-59.019-44.207-95.89-31.441-36.872.064-49.012 53.049-60.473 52.984-11.46 99.36-14.035 107.216-61.537 7.858-47.502-98.365-37.75 13.733-104.164 6.322-3.746 11.8-7.52 16.539-11.297h-136.979c-85.902 20.45-212.327 42.846-366.652 47.422C843.918 51.362 664.204 27.525 506.22 0H171.715zm659.224 0c187.291 20.873 345.19 12.17 448.584 0H830.94z" fill="#36197f"/></svg>