<svg xmlns="http://www.w3.org/2000/svg" width="1600" height="864"><path d="M619.148 131.475c-45.084.475-69.441 32.787-41.29 113.423 72.138 206.64 9.546 188.042-144.012 135.961-153.559-52.08-206.01-73.097-255.21-14.732-49.199 58.365 16.18 75.893 56.44 123.396 40.261 47.505-.273 62.984-68.406 77.506-68.133 14.523-127.737 17.652-138.018 78.664-10.281 61.014 126.26 48.892-18.05 133.805A210.6 210.6 0 0 0 0 786.162V864h1196.486a3519.037 3519.037 0 0 0-234.316-47.941c-429.164-72.675-768.214-18.188-858.621 1.082-74.004 15.774-92.123 21.223-96.352 22.707 14.805-5.527 259.872-95.04 629.487-104.885 279.482-7.444 719.648 81.142 935.056 129.037H1600V590.326c-8.13-20.532-16.096-39.107-23.59-54.303-50.664-102.738-91.946-48.243-96.486-17.29-4.541 30.954-46.55 72.402-156.383-140.84-109.833-213.244-210.112-227.434-259.137-91.135-49.024 136.3-137.104 88.928-230.5-27.473-58.563-72.988-154.917-128.442-214.756-127.81z" fill="#36197f"/></svg>