<svg xmlns="http://www.w3.org/2000/svg" width="1600" height="502"><path d="M807.414 39.729c-36.81-.422-96.428 50.147-125.393 107.712-42.15 83.771-90.074 124.425-138.058 47.08-47.984-77.344-107.754-55.488-147.32 89.954-39.566 145.441-70.815 125.472-77.66 107.045-6.846-18.429-39.355-46.513-57.034 23.265-5.614 22.162-10.547 54.037-14.668 87.215h330.364c99.577-37.975 203.934-72.485 287.896-88.057 228.564-42.39 390.954-19.435 400.621-18-2.766-.356-14.574-1.336-62.205-1.336-57.226 0-267.246 10.612-516.557 107.393h522.13c-10.958-21.704-8.943-46.087 33.993-53.168 45.88-7.566 89.692-63.839 12.627-89.535-99.812-33.28-14.312-43.715-28.623-79.865-14.31-36.15-51.35-30.266-95.125-30.266s-70.715-4.203-52.195-38.672c18.52-34.47 56.404-53.806 18.521-83.23-37.882-29.424-67.363-9.638-154.914 42.486-87.55 52.123-123.583 71.754-106.318-64.691 5.88-46.469-7.995-65.078-30.082-65.33z" fill="#36197f" fill-opacity=".353"/></svg>